<svg xmlns="http://www.w3.org/2000/svg" viewBox="0 0 500 370" fill="none" role="img" aria-label="Una tavolozza con un pennello, un dipinto e un arco classico raccontano arte, storia e cultura italiana."><defs><filter id="lab-soft" x="-30%" y="-30%" width="160%" height="160%"><feDropShadow dx="0" dy="8" stdDeviation="10" flood-color="#004a59" flood-opacity=".1" /></filter></defs>
<g transform="translate(30 0) scale(.8 .7)"><path class="assembly-piece assembly-backdrop water-shape" d="M43 211C22 107 111 33 227 32C373 30 480 74 503 189C525 301 467 423 353 464C245 503 135 446 81 366C46 317 53 262 43 211Z" fill="#b6e3d4" /></g>
<ellipse cx="250" cy="185" rx="220" ry="157" transform="rotate(-10 250 185)" stroke="#77b7b1" stroke-width="1.5" stroke-dasharray="4 8" class="services-orbit-track" /><circle class="assembly-piece assembly-sun" cx="410" cy="73" r="30" fill="#fff5cb" />
<g class="assembly-piece assembly-notebook" transform="rotate(-5 233 161)" filter="url(#lab-soft)"><path d="m216 48-35 251M247 48l39 251M179 243h109" stroke="#004a59" stroke-width="7" stroke-linecap="round" /><rect x="150" y="75" width="163" height="139" rx="7" fill="#fffdf3" stroke="#d9c89f" stroke-width="7" /><rect x="164" y="88" width="135" height="112" fill="#d3ebe6" /><circle cx="269" cy="112" r="14" fill="#ffd562" /><path d="m164 163 39-37 40 36 25-20 31 27v31H164Z" fill="#70aba1" /><path d="m164 179 45-25 31 26 32-13 27 17v16H164Z" fill="#004a59" /><path d="M231 201v-33q0-17 17-17t17 17v33" fill="#fff5cb" /><path d="M239 201v-31q0-9 9-9t9 9v31" fill="#f07018" /><path d="M220 201h56" stroke="#d9c89f" stroke-width="3" /></g>
<g class="assembly-piece assembly-pencil" transform="rotate(7 362 193)" filter="url(#lab-soft)"><rect x="314" y="123" width="106" height="147" rx="9" fill="#fffdf3" /><path d="M330 247v-76q0-37 37-37t37 37v76M346 247v-76q0-21 21-21t21 21v76" stroke="#d7c89e" stroke-width="7" /><path d="M326 247h82M330 257h73M329 166h18M386 166h18" stroke="#004a59" stroke-width="3" stroke-linecap="round" /><path d="M338 179v57M397 179v57" stroke="#95bdb2" stroke-width="2" /></g>
<g class="assembly-piece assembly-note" transform="rotate(-8 131 237)" filter="url(#lab-soft)"><path d="M113 181c-39 4-64 40-45 73 17 30 63 42 93 21 18-13-17-22-4-39 24-31-10-59-44-55Z" fill="#fff5cb" stroke="#d7c89e" stroke-width="2" /><ellipse cx="139" cy="257" rx="9" ry="7" fill="#b6e3d4" /><circle cx="91" cy="225" r="10" fill="#f07018" /><circle cx="112" cy="201" r="9" fill="#004a59" /><circle cx="138" cy="211" r="9" fill="#33a7b5" /><circle cx="104" cy="255" r="9" fill="#70aba1" /><g transform="translate(133 239) rotate(26)"><path d="M-3 0-4-70H4L3 0Q0 7-3 0Z" fill="#004a59"/><path d="M-1-5v-58" stroke="#33818b" stroke-width="1.3" stroke-linecap="round"/><path d="M-4-70-5-84H5L4-70Z" fill="#d7c89e" stroke="#a99c7e" stroke-width="1"/><path d="M-4.5-80h9M-4-73h8" stroke="#fffdf3" stroke-width="1.3"/><path d="M-5-84C-8-94-2-99 0-110C2-99 8-94 5-84Z" fill="#965c36"/><path d="M0-110C-1-105-3-101-4-98Q0-100 4-98C3-101 1-105 0-110Z" fill="#f07018"/><path d="M-2-86Q-3-94 0-102M2-86Q3-93 1-100" stroke="#c79760" stroke-width="1" stroke-linecap="round"/></g></g>

<g class="assembly-piece assembly-spark-left"><path class="notebook-star" d="m76 102 4-12 4 12 12 4-12 4-4 12-4-12-12-4Z" fill="#f07018" /></g><g class="assembly-piece assembly-spark-right"><path class="notebook-star star-counterclockwise" d="m436 284 3-9 3 9 9 3-9 3-3 9-3-9-9-3Z" fill="#004a59" /></g><circle cx="250" cy="185" r="4" fill="#33a7b5" class="services-satellite" data-phase="0" /><circle cx="250" cy="185" r="4" fill="#f07018" class="services-satellite" data-phase="3.141592653589793" /></svg>