<svg xmlns="http://www.w3.org/2000/svg" viewBox="0 0 500 370" fill="none">
<defs><filter id="soft" x="-30%" y="-30%" width="160%" height="160%"><feDropShadow dx="0" dy="8" stdDeviation="10" flood-color="#004a59" flood-opacity=".09"/></filter><pattern id="squares" width="20" height="20" patternUnits="userSpaceOnUse"><path d="M20 0H0V20" stroke="#004a59" stroke-opacity=".06"/></pattern></defs>
<path d="M72 161C54 74 151 29 265 38c136 10 189 69 176 173-13 101-112 139-218 120C122 313 85 246 72 161Z" fill="#b6e3d4"/>
<circle cx="421" cy="65" r="32" fill="#fff5cb"/>
<path d="M117 146C171 79 308 72 382 142M111 175c-40 108 92 146 153 112 74-42 110-71 119-120" stroke="#33a7b5" stroke-width="2" stroke-dasharray="5 7" stroke-linecap="round"/>
<g transform="rotate(-7 114 155)" filter="url(#soft)"><rect x="48" y="89" width="133" height="148" rx="13" fill="#fffdf3"/><rect x="48" y="89" width="133" height="148" rx="13" fill="url(#squares)"/><circle cx="114" cy="146" r="33" fill="#fff5cb"/><circle cx="114" cy="136" r="11" fill="#004a59"/><path d="M94 168c0-24 40-24 40 0" fill="#004a59"/><path d="M77 198h73M87 209h53" stroke="#95bdb2" stroke-width="3" stroke-linecap="round"/></g>
<g transform="rotate(6 382 159)" filter="url(#soft)"><rect x="318" y="92" width="128" height="145" rx="13" fill="#fffdf3"/><circle cx="382" cy="148" r="33" fill="#b6e3d4"/><circle cx="382" cy="138" r="11" fill="#004a59"/><path d="M362 170c0-24 40-24 40 0" fill="#004a59"/><path d="M346 199h72M356 210h52" stroke="#95bdb2" stroke-width="3" stroke-linecap="round"/></g>
<g transform="rotate(-3 250 280)" filter="url(#soft)"><rect x="192" y="220" width="120" height="108" rx="13" fill="#fffdf3"/><circle cx="250" cy="259" r="25" fill="#fff5cb"/><circle cx="250" cy="250" r="9" fill="#004a59"/><path d="M234 276c0-20 32-20 32 0" fill="#004a59"/><path d="M220 303h61" stroke="#95bdb2" stroke-width="3" stroke-linecap="round"/></g>
<g filter="url(#soft)"><path d="M183 99h114a15 15 0 0 1 15 15v56a15 15 0 0 1-15 15h-40l-22 18 3-18h-55a15 15 0 0 1-15-15v-56a15 15 0 0 1 15-15Z" fill="#004a59"/><path d="M240 160s-27-15-27-30c0-15 19-18 27-5 8-13 27-10 27 5 0 15-27 30-27 30Z" fill="#f07018"/></g>
<g transform="rotate(8 153 62)"><path d="M132 46h42a9 9 0 0 1 9 9v19a9 9 0 0 1-9 9h-12l-10 10 1-10h-21a9 9 0 0 1-9-9V55a9 9 0 0 1 9-9Z" fill="#fff5cb"/><circle cx="140" cy="65" r="2.5" fill="#004a59"/><circle cx="153" cy="65" r="2.5" fill="#004a59"/><circle cx="166" cy="65" r="2.5" fill="#004a59"/></g>
<path d="m65 278 4-12 4 12 12 4-12 4-4 12-4-12-12-4Z" fill="#f07018"/><path d="m445 287 3-9 3 9 9 3-9 3-3 9-3-9-9-3Z" fill="#004a59"/>
<circle cx="297" cy="55" r="4" fill="#f07018"/><circle cx="158" cy="278" r="4" fill="#33a7b5"/>
</svg>
